<?xml version="1.0" encoding="iso-8859-1"?>
<!-- Uploaded to: SVG Repo, www.svgrepo.com, Generator: SVG Repo Mixer Tools -->
<svg version="1.1" id="Layer_1" xmlns="http://www.w3.org/2000/svg" xmlns:xlink="http://www.w3.org/1999/xlink" 
	 viewBox="0 0 393.309 393.309" xml:space="preserve">
<circle style="fill:#886C60;" cx="196.655" cy="196.655" r="196.655"/>
<rect x="186.117" y="78.675" style="fill:#FCFCFD;" width="20.945" height="225.422"/>
<circle style="fill:#333842;" cx="196.655" cy="50.36" r="35.62"/>
<circle style="fill:#FCFCFD;" cx="196.655" cy="50.36" r="22.044"/>
<rect x="177.261" y="251.669" style="fill:#F1F3F7;" width="38.788" height="100.655"/>
<path style="fill:#414753;" d="M314.117,346.117H79.192c-15.063,0-27.281,12.218-27.281,27.281h289.358
	C341.398,358.335,329.18,346.117,314.117,346.117z"/>
<path style="fill:#333842;" d="M328.663,262.723c-1.616,0-3.168-0.776-4.008-2.263l-128-205.317L68.719,260.461
	c-1.422,2.263-4.331,2.909-6.594,1.552c-2.263-1.358-2.909-4.331-1.552-6.594L192.646,43.636c0.84-1.422,2.392-2.263,4.008-2.263
	s3.168,0.84,4.008,2.263l132.008,211.846c1.422,2.263,0.711,5.172-1.552,6.594C330.408,262.465,329.568,262.723,328.663,262.723z"/>
<path style="fill:#FBD303;" d="M311.143,249.6c-11.378,15.127-27.41,23.855-44.347,23.855H126.513
	c-16.937,0-32.97-8.727-44.347-23.855H47.127c0,8.792,7.111,15.903,15.903,15.903h5.43l21.915,32.905
	c10.537,15.774,25.665,24.824,41.568,24.824h129.358c15.903,0,31.095-9.051,41.568-24.824l21.915-32.905h5.43
	c8.792,0,15.903-7.111,15.903-15.903L311.143,249.6L311.143,249.6z"/>
<path style="fill:#F8B517;" d="M132.008,314.828c-14.093,0-27.539-8.016-36.848-21.915l-23.273-34.844h7.628
	c12.412,15.192,29.35,23.855,46.933,23.855h140.347c17.519,0,34.457-8.663,46.933-23.855h7.628l-23.273,34.844
	c-9.374,13.964-22.691,21.915-36.848,21.915H132.008z"/>
<g>
	<circle style="fill:#FFFFFF;" cx="119.919" cy="296.275" r="7.822"/>
	<circle style="fill:#FFFFFF;" cx="150.626" cy="298.408" r="7.822"/>
	<circle style="fill:#FFFFFF;" cx="181.269" cy="298.408" r="7.822"/>
	<circle style="fill:#FFFFFF;" cx="212.04" cy="298.408" r="7.822"/>
	<circle style="fill:#FFFFFF;" cx="242.683" cy="298.408" r="7.822"/>
	<circle style="fill:#FFFFFF;" cx="273.39" cy="296.275" r="7.822"/>
</g>
<path style="fill:#F0582F;" d="M84.428,216.113c-9.18,0-18.36,0-27.604,0c50.23-29.285,64.905-70.982,44.218-100.331
	c5.883,0,11.766,0,17.648,0C142.739,145.196,131.297,186.828,84.428,216.113z"/>
<path style="fill:#FCFCFD;" d="M112.032,216.113c-9.18,0-18.36,0-27.604,0c46.933-29.285,58.246-70.982,34.263-100.331
	c5.883,0,11.766,0,17.648,0C163.685,145.196,155.539,186.828,112.032,216.113z"/>
<path style="fill:#F0582F;" d="M136.598,216.113c-9.18,0-18.36,0-27.604,0c43.895-29.285,52.364-70.982,25.406-100.331
	c5.883,0,11.766,0,17.648,0C182.368,145.196,177.196,186.828,136.598,216.113z"/>
<path style="fill:#FCFCFD;" d="M164.137,216.113c-9.18,0-18.36,0-27.604,0c40.663-29.285,45.77-70.982,15.451-100.331
	c5.883,0,11.766,0,17.648,0C203.313,145.196,201.438,186.828,164.137,216.113z"/>
<path style="fill:#F0582F;" d="M191.741,216.113c-9.18,0-18.36,0-27.604,0c37.301-29.285,39.111-70.982,5.495-100.331
	c5.883,0,11.766,0,17.648,0C224.259,145.196,225.681,186.828,191.741,216.113z"/>
<path style="fill:#FCFCFD;" d="M219.281,216.113c-9.18,0-18.36,0-27.604,0c34.004-29.285,32.517-70.982-4.396-100.331
	c5.883,0,11.766,0,17.648,0C245.204,145.196,249.988,186.828,219.281,216.113z"/>
<path style="fill:#F0582F;" d="M246.885,216.113c-9.18,0-18.36,0-27.604,0c30.707-29.285,25.859-70.982-14.352-100.331
	c5.883,0,11.766,0,17.648,0C266.15,145.196,274.23,186.828,246.885,216.113z"/>
<path style="fill:#FCFCFD;" d="M274.489,216.113c-9.18,0-18.36,0-27.604,0c27.345-29.285,19.265-70.982-24.372-100.267
	c5.883,0,11.766,0,17.648,0C287.095,145.196,298.473,186.828,274.489,216.113z"/>
<path style="fill:#F0582F;" d="M301.964,216.113c-9.18,0-18.36,0-27.604,0c24.048-29.285,12.606-70.982-34.263-100.331
	c5.883,0,11.766,0,17.648,0C307.976,145.196,322.78,186.828,301.964,216.113z"/>
</svg>